HIERARCHY
ROOT Hip
{
	OFFSET 0 1.131 0.0052
	CHANNELS 6 Xposition Yposition Zposition Xrotation Yrotation Zrotation
	JOINT Abdomen
	{
		OFFSET 0 -0.047353 -0.05
		CHANNELS 3 Xrotation Zrotation Yrotation
		JOINT Chest
		{
			OFFSET 0 0.132153 0.007439
			CHANNELS 3 Xrotation Zrotation Yrotation
			JOINT Neck
			{
				OFFSET 0 0.3078 0.006161
				CHANNELS 3 Xrotation Zrotation Yrotation
				JOINT Head_comp
				{
					OFFSET 0 0.0884 0.013
					CHANNELS 3 Xrotation Yrotation Zrotation
					End Site
					{
						OFFSET -0 0.156 0.0624
					}
				}
			}
			JOINT Left_Collar
			{
				OFFSET 0.02282 0.250342 0.017193
				CHANNELS 2 Yrotation Zrotation
				JOINT Left_Shoulder
				{
					OFFSET 0.15421 0 0
					CHANNELS 3 Xrotation Yrotation Zrotation
					JOINT Left_Forearm
					{
						OFFSET 0.265212 0 0
						CHANNELS 2 Yrotation Xrotation
						JOINT Left_Hand
						{
							OFFSET 0.27571 0 0
							CHANNELS 2 Zrotation Yrotation
							JOINT L1ProxPhalanx
							{
								OFFSET 0.014142 0.001733 0.014142
								CHANNELS 3 Yrotation Zrotation Xrotation
								JOINT L1MidPhalanx
								{
									OFFSET 0.04 0 0
									CHANNELS 1 Zrotation
									JOINT L1DistPhalanx
									{
										OFFSET 0.035 0 0
										CHANNELS 1 Zrotation
										End Site
										{
											OFFSET 0.029 -0 -0
										}
									}
								}
							}
							JOINT L2ProxPhalanx
							{
								OFFSET 0.0821037 0.001578 0.0219996
								CHANNELS 2 Yrotation Zrotation
								JOINT L2MidPhalanx
								{
									OFFSET 0.04 0 0
									CHANNELS 1 Zrotation
									JOINT L2DistPhalanx
									{
										OFFSET 0.028 0 0
										CHANNELS 1 Zrotation
										End Site
										{
											OFFSET 0.02 -0 -0
										}
									}
								}
							}
							JOINT L3ProxPhalanx
							{
								OFFSET 0.083 0 0
								CHANNELS 2 Yrotation Zrotation
								JOINT L3MidPhalanx
								{
									OFFSET 0.053 0 0
									CHANNELS 1 Zrotation
									JOINT L3DistPhalanx
									{
										OFFSET 0.03 0 0
										CHANNELS 1 Zrotation
										End Site
										{
											OFFSET 0.023 -0 -0
										}
									}
								}
							}
							JOINT L4ProxPhalanx
							{
								OFFSET 0.077274 -0.000761 -0.0207055
								CHANNELS 2 Yrotation Zrotation
								JOINT L4MidPhalanx
								{
									OFFSET 0.05 0 0
									CHANNELS 1 Zrotation
									JOINT L4DistPhalanx
									{
										OFFSET 0.03 0 0
										CHANNELS 1 Zrotation
										End Site
										{
											OFFSET 0.023 -0 -0
										}
									}
								}
							}
							JOINT L5ProxPhalanx
							{
								OFFSET 0.0675499 -0.001644 -0.039
								CHANNELS 2 Yrotation Zrotation
								JOINT L5MidPhalanx
								{
									OFFSET 0.04 0 0
									CHANNELS 1 Zrotation
									JOINT L5DistPhalanx
									{
										OFFSET 0.021 0 0
										CHANNELS 1 Zrotation
										End Site
										{
											OFFSET 0.022 -0 -0
										}
									}
								}
							}
						}
					}
				}
			}
			JOINT Right_Collar
			{
				OFFSET -0.02282 0.250342 0.017193
				CHANNELS 2 Yrotation Zrotation
				JOINT Right_Shoulder
				{
					OFFSET -0.15421 0 0
					CHANNELS 3 Xrotation Yrotation Zrotation
					JOINT Right_Forearm
					{
						OFFSET -0.265212 0 0
						CHANNELS 2 Yrotation Xrotation
						JOINT Right_Hand
						{
							OFFSET -0.27571 3e-006 0
							CHANNELS 2 Zrotation Yrotation
							JOINT R1ProxPhalanx
							{
								OFFSET -0.014142 0.001733 0.014142
								CHANNELS 3 Yrotation Zrotation Xrotation
								JOINT R1MidPhalanx
								{
									OFFSET -0.04 0 0
									CHANNELS 1 Zrotation
									JOINT R1DistPhalanx
									{
										OFFSET -0.035 0 0
										CHANNELS 1 Zrotation
										End Site
										{
											OFFSET -0.029 -0 -0
										}
									}
								}
							}
							JOINT R2ProxPhalanx
							{
								OFFSET -0.0821037 0.001578 0.0219996
								CHANNELS 2 Yrotation Zrotation
								JOINT R2MidPhalanx
								{
									OFFSET -0.04 0 0
									CHANNELS 1 Zrotation
									JOINT R2DistPhalanx
									{
										OFFSET -0.028 0 0
										CHANNELS 1 Zrotation
										End Site
										{
											OFFSET -0.02 -0 -0
										}
									}
								}
							}
							JOINT R3ProxPhalanx
							{
								OFFSET -0.083 0 0
								CHANNELS 2 Yrotation Zrotation
								JOINT R3MidPhalanx
								{
									OFFSET -0.053 0 0
									CHANNELS 1 Zrotation
									JOINT R3DistPhalanx
									{
										OFFSET -0.03 0 0
										CHANNELS 1 Zrotation
										End Site
										{
											OFFSET -0.023 -0 -0
										}
									}
								}
							}
							JOINT R4ProxPhalanx
							{
								OFFSET -0.077274 -0.000761 -0.0207055
								CHANNELS 2 Yrotation Zrotation
								JOINT R4MidPhalanx
								{
									OFFSET -0.05 0 0
									CHANNELS 1 Zrotation
									JOINT R4DistPhalanx
									{
										OFFSET -0.03 0 0
										CHANNELS 1 Zrotation
										End Site
										{
											OFFSET -0.023 -0 -0
										}
									}
								}
							}
							JOINT R5ProxPhalanx
							{
								OFFSET -0.0675499 -0.001644 -0.039
								CHANNELS 2 Yrotation Zrotation
								JOINT R5MidPhalanx
								{
									OFFSET -0.04 0 0
									CHANNELS 1 Zrotation
									JOINT R5DistPhalanx
									{
										OFFSET -0.021 0 0
										CHANNELS 1 Zrotation
										End Site
										{
											OFFSET -0.022 -0 -0
										}
									}
								}
							}
						}
					}
				}
			}
		}
	}
	JOINT Left_Thigh
	{
		OFFSET 0.1118 -0.1612 -0.0442
		CHANNELS 3 Xrotation Zrotation Yrotation
		JOINT Left_Shin
		{
			OFFSET 0 -0.477856 0
			CHANNELS 1 Xrotation
			JOINT Left_Foot
			{
				OFFSET 0 -0.431952 0
				CHANNELS 2 Xrotation Zrotation
				JOINT Left_Toe
				{
					OFFSET 0 -0.0442 0.119
					CHANNELS 1 Xrotation
					End Site
					{
						OFFSET -0 -0 0.07
					}
				}
			}
		}
	}
	JOINT Right_Thigh
	{
		OFFSET -0.1118 -0.1612 -0.0442
		CHANNELS 3 Xrotation Zrotation Yrotation
		JOINT Right_Shin
		{
			OFFSET 0 -0.477856 0
			CHANNELS 1 Xrotation
			JOINT Right_Foot
			{
				OFFSET 0 -0.431952 0
				CHANNELS 2 Xrotation Zrotation
				JOINT Right_Toe
				{
					OFFSET 0 -0.0442 0.119
					CHANNELS 1 Xrotation
					End Site
					{
						OFFSET -0 -0 0.07
					}
				}
			}
		}
	}
}
MOTION
Frames: 11
Frame Time: 0.009975
-0.101334 -0.0600605 0.042881 5.75806e-013 2.09305e-008 -5.10962e-006 0 -0 0 0 -0 0 0 -0 0 -0.712242 0.290625 -1.74169e-012 7.70886 -21.6099 3.0133 -13.3161 -26.2566 -112.904 -3.8265 5.25992 -2.25488 -40.5316 -43.5896 103.283 -7.10789 -4.81548 2.69559 -7.40342 -2.98992 -6.72733 5.89092 0.508958 -5.4973 -5.3917 11.1257 1.19015 -12.1062 -9.35422 19.4153 3.33565 -41.2194 -1.46018 6.11107 22.434 -21.5784 27.6463 32.8317 45.2521 10.7525 -8.14142 -9.77813 69.2368 57.7248 74.1562 8.6474 9.98064 1.45137 19.9477 -4.84215 -1.33472 -5.26994 0.868851 1.22618 2.48016 -12.9283 -1.7209 21.106 -4.23249 -16.6125 -5.46586 66.7322 -36.0604 0.233023 -0.659127 -0.00268064 0.0240216 -0.257029 0.659137 0 0.244429 -0.659126 -0.00281184 1.70755e-006 -0.244414 0.659137 0 
-0.10134 -0.0600619 0.0432016 -8.64696e-013 2.26746e-008 -5.10961e-006 0 -0 0 0 -0 0 0 -0 0 -0.712267 0.290648 -6.59432e-013 7.70886 -21.6099 3.0133 -13.3161 -26.2566 -112.904 -3.8265 5.25992 -2.25488 -40.5316 -43.5896 103.283 -7.10789 -4.81548 2.69559 -7.40342 -2.98992 -6.72733 5.89092 0.508958 -5.4973 -5.3917 11.1257 1.19015 -12.1062 -9.35422 19.4153 3.33565 -41.2194 -1.46018 5.40264 22.4824 -20.845 27.0765 32.8724 48.7817 9.69432 -9.55875 -9.34323 63.4498 50.5123 84.892 8.40577 6.40741 1.89211 13.9128 -2.18911 0.717995 -6.25616 0.680968 1.63716 3.57663 -15.5273 -1.37205 14.721 -1.58637 -22.7049 -4.62451 59.6222 -34.4062 0.253214 -0.658719 -0.00291111 0.0240216 -0.277219 0.658731 0 0.264619 -0.658719 -0.00304224 2.41484e-006 -0.264604 0.658731 0 
-0.101346 -0.0600635 0.0435598 1.29409e-012 2.45416e-008 -5.1096e-006 0 -0 0 0 -0 0 0 -0 0 -0.712295 0.290649 7.07877e-013 7.70886 -21.6099 3.0133 -13.3161 -26.2566 -112.904 -3.8265 5.25992 -2.25488 -40.5316 -43.5896 103.283 -7.10789 -4.81548 2.69559 -7.40342 -2.98992 -6.72733 5.89092 0.508958 -5.4973 -5.3917 11.1257 1.19015 -12.1062 -9.35422 19.4153 3.33565 -41.2194 -1.46018 4.65403 22.4942 -19.9184 26.48 32.8613 52.6799 8.51435 -10.8952 -8.83843 57.3288 41.3723 92.9623 7.43567 2.28551 0.983423 6.79752 0.824648 3.2457 -8.54477 -0.381124 2.03292 4.98664 -18.5661 -1.04846 7.03624 2.6333 -29.8 -3.40419 45.8613 -30.1111 0.275769 -0.658361 -0.0031687 0.0240216 -0.299772 0.658374 0 0.287174 -0.658361 -0.00329976 1.70755e-006 -0.287157 0.658374 0 
-0.101356 -0.0600655 0.0439645 2.15705e-013 2.67114e-008 -5.10959e-006 0 -0 0 0 -0 0 0 -0 0 -0.712327 0.290665 -3.16437e-012 7.70886 -21.6099 3.0133 -13.3161 -26.2566 -112.904 -3.8265 5.25992 -2.25488 -40.5316 -43.5896 103.283 -7.10789 -4.81548 2.69559 -7.40342 -2.98992 -6.72733 5.89092 0.508958 -5.4973 -5.3917 11.1257 1.19015 -12.1062 -9.35422 19.4153 3.33565 -41.2194 -1.46018 3.84302 22.5029 -18.8226 25.872 32.7992 56.8506 7.28632 -12.079 -8.27987 55.181 39.3366 92.192 6.73031 1.83855 0.414747 5.65082 1.24988 3.79835 -9.1298 -0.410058 2.07084 5.28469 -19.0515 -0.991727 6.11547 2.93165 -31.2978 -3.00921 40.0192 -28.0015 0.301257 -0.657737 -0.00345826 0.0240216 -0.325259 0.657751 0 0.312663 -0.657736 -0.00358919 8.70849e-007 -0.312643 0.657751 0 
-0.101359 -0.0600675 0.0443216 -2.26062e-014 2.91029e-008 -5.10958e-006 0 -0 0 0 -0 0 0 -0 0 -0.712354 0.290749 -5.58223e-012 7.70886 -21.6099 3.0133 -13.3161 -26.2566 -112.904 -3.8265 5.25992 -2.25488 -40.5316 -43.5896 103.283 -7.10789 -4.81548 2.69559 -7.40342 -2.98992 -6.72733 5.89092 0.508958 -5.4973 -5.3917 11.1257 1.19015 -12.1062 -9.35422 19.4153 3.33565 -41.2194 -1.46018 3.38647 22.2345 -17.6012 24.8968 32.8202 60.754 6.58181 -12.5052 -7.87126 55.0198 39.4979 92.0609 6.98844 2.0757 0.536578 5.83453 1.35288 3.99573 -9.02166 -0.19061 2.40632 5.6601 -18.9608 -0.700334 6.43191 3.06566 -30.9201 -2.76234 40.3407 -27.5568 0.323748 -0.657517 -0.00371529 0.0240216 -0.347748 0.657533 0 0.335154 -0.657517 -0.00384617 0 -0.335131 0.657533 0 
-0.101348 -0.0600695 0.0446258 -2.65375e-013 3.07153e-008 -5.10957e-006 0 -0 0 0 -0 0 0 -0 0 -0.712378 0.290804 1.22251e-012 7.70886 -21.6099 3.0133 -13.3161 -26.2566 -112.904 -3.8265 5.25992 -2.25488 -40.5316 -43.5896 103.283 -7.10789 -4.81548 2.69559 -7.40342 -2.98992 -6.72733 5.89092 0.508958 -5.4973 -5.3917 11.1257 1.19015 -12.1062 -9.35422 19.4153 3.33565 -41.2194 -1.46018 3.30508 21.7271 -16.2507 23.5898 32.966 64.0186 6.42361 -12.2046 -7.68207 54.6757 39.2664 91.691 7.37631 2.60699 0.790049 6.08399 1.91037 4.31083 -8.83991 0.26523 3.01491 6.11268 -18.7527 -0.0676279 6.95115 3.48264 -30.4549 -2.16807 40.2362 -26.3968 0.342912 -0.658206 -0.00393935 0.0240216 -0.366911 0.658223 0 0.354317 -0.658205 -0.00407037 0 -0.354294 0.658223 0 
-0.101334 -0.0600717 0.044948 4.97692e-013 3.25352e-008 -5.10956e-006 0 -0 0 0 -0 0 0 -0 0 -0.712406 0.290782 1.52673e-012 7.70886 -21.6099 3.0133 -13.3161 -26.2566 -112.904 -3.8265 5.25992 -2.25488 -40.5316 -43.5896 103.283 -7.10789 -4.81548 2.69559 -7.40342 -2.98992 -6.72733 5.89092 0.508958 -5.4973 -5.3917 11.1257 1.19015 -12.1062 -9.35422 19.4153 3.33565 -41.2194 -1.46018 3.22671 21.2649 -14.8276 22.3305 33.1536 66.8197 6.2713 -11.9152 -7.49991 54.3315 39.0349 91.3211 7.76417 3.13828 1.04352 6.33345 2.46787 4.62592 -8.65815 0.721071 3.6235 6.56526 -18.5446 0.565079 7.47039 3.89963 -29.9898 -1.57379 40.1317 -25.2369 0.363204 -0.659084 -0.00417804 0.0240216 -0.387202 0.659102 0 0.37461 -0.659083 -0.00430923 8.23892e-007 -0.374586 0.659102 0 
-0.101321 -0.0600739 0.0452643 -1.72961e-012 3.43433e-008 -5.10954e-006 0 -0 0 0 -0 0 0 -0 0 -0.712435 0.290757 1.7113e-012 7.70886 -21.6099 3.0133 -13.3161 -26.2566 -112.904 -3.8265 5.25992 -2.25488 -40.5316 -43.5896 103.283 -7.10789 -4.81548 2.69559 -7.40342 -2.98992 -6.72733 5.89092 0.508958 -5.4973 -5.3917 11.1257 1.19015 -12.1062 -9.35422 19.4153 3.33565 -41.2194 -1.46018 3.15059 20.8277 -13.4281 21.1778 33.3749 69.2447 6.12335 -11.6341 -7.32298 53.9874 38.8035 90.9511 8.15203 3.66957 1.29699 6.5829 3.02536 4.94101 -8.4764 1.17691 4.23209 7.01784 -18.3365 1.19779 7.98963 4.31662 -29.5246 -0.979519 40.0272 -24.0769 0.383123 -0.659929 -0.00441283 0.0240216 -0.40712 0.659949 0 0.394529 -0.659928 -0.00454419 1.70755e-006 -0.394505 0.659949 0 
-0.101309 -0.0600762 0.0455709 -9.09586e-013 3.6906e-008 -5.10953e-006 0 -0 0 0 -0 0 0 -0 0 -0.712464 0.290732 1.43594e-012 7.70886 -21.6099 3.0133 -13.3161 -26.2566 -112.904 -3.8265 5.25992 -2.25488 -40.5316 -43.5896 103.283 -7.10789 -4.81548 2.69559 -7.40342 -2.98992 -6.72733 5.89092 0.508958 -5.4973 -5.3917 11.1257 1.19015 -12.1062 -9.35422 19.4153 3.33565 -41.2194 -1.46018 3.07623 20.4073 -12.0616 20.1192 33.6316 71.3943 5.97884 -11.3595 -7.15015 53.6433 38.572 90.5812 8.53989 4.20086 1.55046 6.83236 3.58285 5.2561 -8.29464 1.63275 4.84068 7.47041 -18.1284 1.83049 8.50888 4.7336 -29.0594 -0.385245 39.9226 -22.917 0.402433 -0.66066 -0.00464038 0.0240216 -0.426428 0.660682 0 0.413839 -0.660659 -0.00477189 2.41484e-006 -0.413814 0.660682 0 
-0.1013 -0.0600785 0.0458689 -9.30952e-013 3.85796e-008 -5.10952e-006 0 -0 0 0 -0 0 0 -0 0 -0.712492 0.290712 1.03222e-012 7.70886 -21.6099 3.0133 -13.3161 -26.2566 -112.904 -3.8265 5.25992 -2.25488 -40.5316 -43.5896 103.283 -7.10789 -4.81548 2.69559 -7.40342 -2.98992 -6.72733 5.89092 0.508958 -5.4973 -5.3917 11.1257 1.19015 -12.1062 -9.35422 19.4153 3.33565 -41.2194 -1.46018 3.00333 19.9993 -10.7252 19.1413 33.9211 73.3307 5.83715 -11.0903 -6.9807 53.2992 38.3405 90.2112 8.92775 4.73216 1.80393 7.08182 4.14034 5.5712 -8.11289 2.08859 5.44927 7.92299 -17.9203 2.4632 9.02812 5.15059 -28.5943 0.20903 39.8181 -21.757 0.4212 -0.661239 -0.00486102 0.0240216 -0.445194 0.661262 0 0.432606 -0.661238 -0.00499265 2.41484e-006 -0.432579 0.661262 0 
-0.101294 -0.0600809 0.0461595 -6.67673e-013 3.94482e-008 -5.10951e-006 0 -0 0 0 -0 0 0 -0 0 -0.71252 0.290698 6.11701e-013 7.70886 -21.6099 3.0133 -13.3161 -26.2566 -112.904 -3.8265 5.25992 -2.25488 -40.5316 -43.5896 103.283 -7.10789 -4.81548 2.69559 -7.40342 -2.98992 -6.72733 5.89092 0.508958 -5.4973 -5.3917 11.1257 1.19015 -12.1062 -9.35422 19.4153 3.33565 -41.2194 -1.46018 2.93166 19.6011 -9.41469 18.2338 34.2405 75.0945 5.69785 -10.8257 -6.81411 52.9551 38.109 89.8413 9.31561 5.26345 2.0574 7.33127 4.69783 5.88629 -7.93113 2.54443 6.05786 8.37557 -17.7122 3.09591 9.54736 5.56757 -28.1291 0.803304 39.7136 -20.5971 0.439504 -0.661658 -0.00507548 0.0240216 -0.463496 0.661682 0 0.450909 -0.661657 -0.00520718 1.70755e-006 -0.450881 0.661682 0 
